<?xml version="1.0" encoding="UTF-8"?>
<svg width="32" height="32" viewBox="0 0 32 32" fill="none" xmlns="http://www.w3.org/2000/svg">
  <!-- Modern gradient background -->
  <defs>
    <linearGradient id="bg-gradient" x1="0%" y1="0%" x2="100%" y2="100%">
      <stop offset="0%" stop-color="#3b82f6"/>
      <stop offset="100%" stop-color="#1d4ed8"/>
    </linearGradient>
    <linearGradient id="globe-gradient" x1="0%" y1="0%" x2="100%" y2="100%">
      <stop offset="0%" stop-color="#ffffff" stop-opacity="0.95"/>
      <stop offset="100%" stop-color="#e2e8f0" stop-opacity="0.9"/>
    </linearGradient>
  </defs>
  
  <!-- Background with soft rounded corners -->
  <rect x="2" y="2" width="28" height="28" rx="7" fill="url(#bg-gradient)"/>
  
  <!-- Globe circle -->
  <circle cx="16" cy="16" r="10" fill="url(#globe-gradient)" stroke="none"/>
  
  <!-- Globe grid lines -->
  <g stroke="#2563eb" stroke-width="1" fill="none" opacity="0.6">
    <!-- Vertical lines -->
    <ellipse cx="16" cy="16" rx="10" ry="10"/>
    <ellipse cx="16" cy="16" rx="7" ry="10"/>
    <ellipse cx="16" cy="16" rx="4" ry="10"/>
    <!-- Horizontal lines -->
    <line x1="6" y1="16" x2="26" y2="16"/>
    <ellipse cx="16" cy="16" rx="10" ry="6"/>
    <ellipse cx="16" cy="16" rx="10" ry="3"/>
  </g>
  
  <!-- Continents (simplified) -->
  <g fill="#1d4ed8" opacity="0.7">
    <!-- North America -->
    <path d="M10 12 C12 10, 14 10, 16 12 C16 14, 14 15, 12 14 Z"/>
    <!-- Europe/Africa -->
    <path d="M18 11 C20 9, 22 10, 23 12 C22 16, 20 17, 18 15 Z"/>
    <!-- Asia -->
    <path d="M24 14 C26 13, 27 15, 26 17 C24 18, 23 16, 24 14 Z"/>
  </g>
  
  <!-- Subtle highlight for 3D effect -->
  <ellipse cx="12" cy="11" rx="3" ry="1.5" fill="white" opacity="0.3"/>
</svg>